<!DOCTYPE svg PUBLIC "-//W3C//DTD SVG 1.1//EN" "http://www.w3.org/Graphics/SVG/1.1/DTD/svg11.dtd"><svg xmlns:ev="http://www.w3.org/2001/xml-events" xmlns:xlink="http://www.w3.org/1999/xlink" xmlns="http://www.w3.org/2000/svg" xmlns:v="http://schemas.microsoft.com/visio/2003/SVGExtensions/" width="259.97664" height="314.36736" viewBox="0 0 194.983 235.776" xml:space="preserve" color-interpolation-filters="sRGB" class="st11" version="1.1">
	

	<style type="text/css">
	<![CDATA[
		.st1 {fill:#ccffff;stroke:#000000;stroke-linecap:butt;stroke-width:0.5}
		.st2 {fill:#000000;font-family:Arial,Helvetica,sans-serif;font-size:0.666664em}
		.st3 {fill:#c0c0c0;stroke:#000000;stroke-linecap:butt;stroke-width:0.5}
		.st4 {stroke:#000000;stroke-linecap:butt;stroke-width:0.5}
		.st5 {marker-end:url(#mrkr4-33);stroke:#000000;stroke-linecap:butt;stroke-width:0.5}
		.st6 {fill:#000000;fill-opacity:1;stroke:#000000;stroke-opacity:1;stroke-width:0.21739130434783}
		.st7 {fill:#ffffff;stroke:none;stroke-linecap:butt;stroke-width:0.5}
		.st8 {marker-end:url(#mrkr4-75);stroke:#000000;stroke-linecap:butt;stroke-width:0.24}
		.st9 {fill:#000000;fill-opacity:1;stroke:#000000;stroke-opacity:1;stroke-width:0.11764705882353}
		.st10 {marker-end:url(#mrkr4-75);stroke:#000000;stroke-dasharray:1.92,0.96;stroke-linecap:butt;stroke-width:0.24}
		.st11 {fill:none;fill-rule:evenodd;font-size:12px;overflow:visible;stroke-linecap:square;stroke-miterlimit:3}
	]]>
	</style>

	<defs id="Markers">
		<g id="lend4">
			<path d="M 2 1 L -0 0 L 2 -1 L 2 1 " style="stroke:none" />
		</g>
		<marker overflow="visible" id="mrkr4-33" class="st6" orient="auto">
			<use xlink:href="#lend4" transform="scale(-4.6,-4.6) " />
		</marker>
		<marker overflow="visible" id="mrkr4-75" class="st9" orient="auto">
			<use xlink:href="#lend4" transform="scale(-8.5,-8.5) " />
		</marker>
	</defs>
	<g>
		<title>Page-1</title>
		
		<g id="shape1-1" transform="translate(105.382,-193.256)">
			<title>Block</title>
			<desc>LR’’</desc>
			
			
			
			
			<rect x="0" y="218.768" width="68.0315" height="17.0079" class="st1" />
			<text x="27.13" y="229.67" class="st2">LR’’</text>		</g>
		<g id="shape2-4" transform="translate(105.382,-176.248)">
			<title>Block.2</title>
			<desc>FP’’</desc>
			
			
			
			
			<rect x="0" y="218.768" width="68.0315" height="17.0079" class="st1" />
			<text x="27.13" y="229.67" class="st2">FP’’</text>		</g>
		<g id="shape3-7" transform="translate(105.382,-142.232)">
			<title>Block.3</title>
			<desc>Stack args area</desc>
			
			
			
			
			<rect x="0" y="201.76" width="68.0315" height="34.0157" class="st1" />
			<text x="6" y="221.17" class="st2">Stack args area</text>		</g>
		<g id="shape4-10" transform="translate(105.382,-108.217)">
			<title>Block.4</title>
			<desc>Local variables</desc>
			
			
			
			
			<rect x="0" y="201.76" width="68.0315" height="34.0157" class="st3" />
			<text x="7.33" y="221.17" class="st2">Local variables</text>		</g>
		<g id="shape5-13" transform="translate(105.382,-74.2008)">
			<title>Block.5</title>
			<desc>Callee save area</desc>
			
			
			
			
			<rect x="0" y="201.76" width="68.0315" height="34.0157" class="st3" />
			<text x="4" y="221.17" class="st2">Callee save area</text>		</g>
		<g id="shape6-16" transform="translate(105.382,-57.1929)">
			<title>Block.6</title>
			<desc>LR’</desc>
			
			
			
			
			<rect x="0" y="218.768" width="68.0315" height="17.0079" class="st3" />
			<text x="28.01" y="229.67" class="st2">LR’</text>		</g>
		<g id="shape7-19" transform="translate(105.382,-40.185)">
			<title>Block.7</title>
			<desc>FP’</desc>
			
			
			
			
			<rect x="0" y="218.768" width="68.0315" height="17.0079" class="st3" />
			<text x="28.02" y="229.67" class="st2">FP’</text>		</g>
		<g id="shape8-22" transform="translate(105.382,-6.16929)">
			<title>Block.8</title>
			<desc>Stack args area</desc>
			
			
			
			
			<rect x="0" y="201.76" width="68.0315" height="34.0157" class="st3" />
			<text x="6" y="221.17" class="st2">Stack args area</text>		</g>
		<g id="shape9-25" transform="translate(264.622,25.5118) rotate(90)">
			<title>Brace 2a</title>
			<path d="M0 224.44 L0 230.11 L2.83 232.94 L31.18 232.94 L34.02 235.78 L36.85 232.94 L65.2 232.94 L68.03 230.11 L68.03
						 224.44" class="st4" />
		</g>
		<g id="shape10-28" transform="translate(62.8622,-176.248)">
			<title>Sheet.10</title>
			<path d="M0 235.78 L37.92 235.78" class="st5" />
		</g>
		<g id="shape11-34" transform="translate(45.8543,-170.579)">
			<title>Block.11</title>
			<desc>FP’</desc>
			
			
			
			
			<rect x="0" y="224.437" width="17.0079" height="11.3386" class="st7" />
			<text x="2.5" y="232.51" class="st2">FP’</text>		</g>
		<g id="shape12-37" transform="translate(62.8622,-142.232)">
			<title>Sheet.12</title>
			<path d="M0 235.78 L37.92 235.78" class="st5" />
		</g>
		<g id="shape13-42" transform="translate(45.8543,-136.563)">
			<title>Block.13</title>
			<desc>SP’</desc>
			
			
			
			
			<rect x="0" y="224.437" width="17.0079" height="11.3386" class="st7" />
			<text x="2.28" y="232.51" class="st2">SP’</text>		</g>
		<g id="shape14-45" transform="translate(62.8622,-40.185)">
			<title>Sheet.14</title>
			<path d="M0 235.78 L37.92 235.78" class="st5" />
		</g>
		<g id="shape15-50" transform="translate(45.8543,-34.5157)">
			<title>Block.15</title>
			<desc>FP</desc>
			
			
			
			
			<rect x="0" y="224.437" width="17.0079" height="11.3386" class="st7" />
			<text x="3.39" y="232.51" class="st2">FP</text>		</g>
		<g id="shape16-53" transform="translate(62.8622,-6.16929)">
			<title>Sheet.16</title>
			<path d="M0 235.78 L37.92 235.78" class="st5" />
		</g>
		<g id="shape17-58" transform="translate(45.8543,-0.5)">
			<title>Block.17</title>
			<desc>SP</desc>
			
			
			
			
			<rect x="0" y="224.437" width="17.0079" height="11.3386" class="st7" />
			<text x="3.17" y="232.51" class="st2">SP</text>		</g>
		<g id="shape18-61" transform="translate(264.622,94.9606) rotate(90)">
			<title>Brace 2a.18</title>
			<path d="M0 224.44 L0 230.11 L2.83 232.94 L65.91 232.94 L68.74 235.78 L71.57 232.94 L134.65 232.94 L137.48 230.11 L137.48
						 224.44" class="st4" />
		</g>
		<g id="shape19-64" transform="translate(1.91732,-171.996)">
			<title>Block.19</title>
			<desc>Caller</desc>
			
			
			
			
			<rect x="0" y="227.272" width="25.5118" height="8.50394" class="st7" />
			<text x="2.31" y="233.92" class="st2">Caller</text>		</g>
		<g id="shape20-67" transform="translate(0.5,-67.1142)">
			<title>Block.20</title>
			<desc>Callee</desc>
			
			
			
			
			<rect x="0" y="227.272" width="26.9291" height="8.50394" class="st7" />
			<text x="2.12" y="233.92" class="st2">Callee</text>		</g>
		<g id="shape21-70" transform="translate(173.413,-48.689)">
			<title>Sheet.21</title>
			<path d="M0 235.78 L17.01 235.78 L17.01 99.71 L4.08 99.71" class="st8" />
		</g>
		<g id="shape22-76" transform="translate(173.413,-189.004)">
			<title>Sheet.22</title>
			<path d="M0 235.78 L17.01 235.78 L17.01 201.59" class="st10" />
		</g>
	</g>
</svg>
